<?xml version="1.0" standalone="no"?>
<!DOCTYPE svg PUBLIC "-//W3C//DTD SVG 20010904//EN"
 "http://www.w3.org/TR/2001/REC-SVG-20010904/DTD/svg10.dtd">
<svg version="1.0" xmlns="http://www.w3.org/2000/svg"
 width="2000.000000pt" height="2000.000000pt" viewBox="0 0 2000.000000 2000.000000"
 preserveAspectRatio="xMidYMid meet">
<metadata>
Created by potrace 1.11, written by Peter Selinger 2001-2013
</metadata>
<g transform="translate(0.000000,2000.000000) scale(0.100000,-0.100000)"
fill="#000000" stroke="none">
<path d="M8328 18645 c-2 -2 -96 -8 -245 -14 -7 -1 -10 -16 -8 -43 2 -24 7
-88 10 -143 3 -55 8 -122 10 -150 5 -69 17 -241 30 -450 3 -49 7 -117 10 -150
2 -33 7 -100 10 -150 3 -49 8 -121 11 -160 10 -148 15 -222 18 -280 4 -61 13
-189 22 -305 4 -64 12 -177 19 -295 13 -220 16 -274 20 -310 3 -22 7 -87 10
-145 4 -58 8 -123 10 -145 2 -22 6 -87 10 -145 4 -58 8 -127 10 -155 2 -27 7
-99 11 -160 4 -60 8 -121 9 -135 2 -14 3 -37 4 -51 l1 -26 148 49 c81 27 205
64 276 83 71 19 130 36 132 38 3 3 22 97 49 247 11 61 85 434 105 525 12 55
26 105 31 111 5 6 37 15 72 19 34 5 64 9 67 10 3 0 41 5 85 9 44 5 89 10 100
12 23 5 169 17 202 18 25 0 29 7 38 86 4 30 9 64 11 75 2 11 6 40 10 65 3 25
9 70 14 100 5 30 12 73 15 95 3 22 8 54 11 70 3 17 6 41 8 55 4 32 17 118 22
150 2 14 7 43 10 65 8 58 54 366 59 395 2 14 7 48 10 75 4 28 8 57 10 65 2 8
7 35 10 60 3 25 12 86 20 135 8 50 17 110 20 135 3 25 15 104 26 175 11 72 22
144 24 160 13 96 16 118 23 157 15 86 21 81 -113 100 -66 9 -149 20 -185 23
-36 3 -76 7 -90 9 -14 2 -63 7 -110 11 -47 3 -110 8 -140 11 -142 12 -241 16
-577 18 -199 2 -364 2 -365 1z"/>
<path d="M7595 18583 c-895 -112 -1736 -352 -2570 -733 -85 -38 -506 -249
-520 -259 -8 -7 -65 -39 -150 -85 -12 -6 -102 -60 -202 -120 l-181 -109 81
-126 c44 -69 105 -165 136 -214 31 -48 122 -190 202 -315 81 -125 362 -562
624 -972 263 -410 479 -747 481 -748 1 -2 58 30 126 70 129 78 204 120 378
212 124 65 121 53 67 230 -20 66 -36 120 -34 121 2 2 240 107 295 131 22 9 32
20 29 28 -25 64 -190 475 -197 491 -12 24 -278 685 -296 735 -7 19 -31 79 -52
132 l-40 97 30 6 c17 4 53 17 82 30 70 31 286 108 290 104 4 -4 56 -157 181
-524 32 -93 59 -172 61 -173 1 -2 24 3 51 11 26 8 116 35 198 60 83 25 206 60
275 78 69 17 127 33 129 35 4 4 3 91 -3 251 l-2 52 55 12 c31 7 61 13 66 15 6
1 35 6 65 13 105 21 249 45 330 56 25 3 56 8 70 10 14 3 48 8 75 11 28 3 59 7
70 9 11 1 35 3 52 4 31 1 33 3 28 34 -2 17 -7 59 -10 92 -3 33 -8 78 -10 100
-15 138 -26 238 -30 290 -3 33 -7 71 -10 85 -2 14 -7 52 -10 85 -3 33 -7 76
-10 95 -2 19 -7 64 -10 100 -4 36 -8 76 -10 90 -2 14 -6 59 -10 100 -4 41 -8
82 -10 90 -2 8 -6 49 -10 90 -9 90 -13 123 -14 132 -1 8 -6 8 -136 -9z"/>
<path d="M10254 18468 c-4 -18 -8 -40 -9 -48 -2 -8 -5 -28 -9 -45 -18 -92 -48
-243 -50 -260 -2 -11 -11 -60 -21 -110 -10 -49 -19 -99 -20 -110 -2 -11 -15
-76 -28 -145 -14 -69 -28 -141 -31 -160 -3 -19 -8 -46 -11 -60 -3 -14 -7 -36
-10 -50 -2 -14 -10 -59 -18 -100 -17 -81 -66 -339 -73 -380 -3 -14 -11 -59
-19 -100 -8 -41 -17 -88 -20 -105 -2 -16 -7 -41 -10 -55 -14 -72 -27 -138 -31
-165 -3 -16 -7 -35 -9 -42 -2 -8 10 -15 33 -19 20 -4 44 -8 52 -9 91 -18 443
-105 457 -113 9 -6 0 -51 -37 -182 -27 -96 -48 -175 -47 -176 1 -1 45 -14 97
-29 97 -28 339 -108 375 -124 11 -5 70 -28 130 -52 151 -58 350 -146 492 -218
l119 -59 54 101 c29 56 72 138 95 182 41 78 97 184 233 445 35 69 68 129 73
134 13 15 315 -153 554 -308 61 -40 115 -75 121 -79 9 -5 282 387 404 579 8
13 94 142 191 286 97 145 179 268 183 275 6 11 -83 75 -235 167 -139 85 -249
151 -289 173 -168 95 -244 135 -409 218 -191 95 -234 116 -381 180 -47 21
-103 46 -125 55 -153 68 -569 222 -755 279 -58 18 -116 37 -130 42 -23 8 -266
76 -300 84 -8 2 -44 11 -80 20 -36 9 -73 19 -82 21 -25 6 -41 9 -143 33 -49
11 -102 23 -118 25 -15 3 -35 7 -45 10 -9 3 -34 7 -56 11 -21 3 -42 7 -46 10
-5 3 -12 -9 -16 -27z"/>
<path d="M3589 17013 c-52 -37 -98 -71 -104 -75 -5 -4 -44 -34 -85 -65 -87
-67 -73 -55 -220 -175 -63 -51 -120 -97 -126 -103 -6 -5 -37 -32 -69 -60 -32
-27 -67 -58 -79 -68 -279 -242 -653 -632 -947 -987 -139 -168 -449 -587 -449
-607 0 -4 31 -28 68 -53 226 -152 378 -255 382 -260 17 -18 342 -231 349 -228
4 2 39 31 77 64 174 155 210 184 224 181 8 -2 88 -59 177 -126 116 -88 166
-120 176 -114 8 4 66 58 129 118 174 167 345 314 543 466 130 99 277 207 291
211 8 2 102 -95 270 -280 l21 -24 39 43 c120 134 415 420 557 541 l27 24 -108
154 c-59 85 -128 184 -154 220 -25 36 -88 126 -140 200 -52 74 -116 167 -143
205 -27 39 -170 243 -318 455 -148 212 -274 391 -281 398 -10 10 -31 -1 -107
-55z"/>
<path d="M13569 16727 c-101 -138 -187 -256 -192 -262 -24 -30 -177 -244 -177
-248 0 -2 44 -37 98 -77 81 -61 355 -282 372 -300 3 -3 25 -23 50 -44 160
-138 580 -548 580 -566 0 -8 -62 -67 -355 -337 -55 -51 -127 -117 -159 -147
l-60 -55 74 -83 c40 -46 87 -97 103 -114 l29 -32 -68 -83 c-38 -46 -72 -85
-76 -87 -12 -5 -10 -19 5 -34 45 -47 259 -327 347 -456 l35 -50 75 50 c41 28
85 57 97 65 21 14 24 11 94 -96 39 -61 75 -111 80 -111 6 0 326 196 439 269
14 8 62 38 107 66 114 70 278 172 338 210 28 18 158 99 290 180 324 200 298
180 278 213 -135 217 -432 637 -542 768 -14 17 -39 48 -56 69 -236 306 -684
771 -1035 1075 -35 30 -68 60 -74 65 -66 61 -346 283 -462 368 l-51 37 -184
-253z"/>
<path d="M1223 14428 c-50 -84 -106 -180 -124 -213 -18 -33 -43 -78 -55 -100
-31 -55 -244 -481 -244 -488 0 -3 -18 -43 -39 -89 -43 -91 -171 -395 -171
-406 0 -4 123 -51 273 -105 149 -54 319 -115 377 -137 58 -21 175 -64 260 -95
85 -31 196 -71 245 -90 50 -19 171 -64 270 -100 99 -36 196 -72 215 -80 19 -7
206 -77 415 -155 437 -163 843 -315 930 -350 87 -34 187 -73 430 -165 154 -58
289 -110 300 -115 47 -19 108 -41 110 -38 2 2 24 57 50 123 68 174 184 419
263 557 l31 53 -257 159 c-141 88 -293 183 -337 211 -102 65 -504 317 -527
330 -23 13 -213 131 -258 160 -19 13 -145 91 -280 175 -135 84 -261 162 -280
175 -19 13 -217 136 -440 275 -223 139 -421 262 -440 275 -19 12 -84 53 -145
90 -60 37 -132 82 -160 100 -109 70 -313 195 -317 195 -3 0 -46 -69 -95 -152z"/>
<path d="M10518 12846 c-1 -2 -32 -6 -68 -9 -106 -10 -198 -44 -276 -103 -58
-44 -59 -46 -104 -104 -59 -76 -103 -175 -116 -260 -3 -19 -7 -46 -10 -60 -10
-56 -4 -222 11 -296 42 -205 182 -378 354 -439 62 -22 85 -25 182 -30 143 -7
251 31 350 123 39 35 60 49 63 41 2 -8 10 -41 18 -74 l13 -60 65 0 65 0 3 333
2 332 -42 1 c-62 0 -396 0 -445 0 l-41 -1 0 -85 1 -85 170 0 169 0 -6 -52
c-21 -172 -160 -290 -341 -291 -169 0 -293 90 -353 255 -22 62 -27 92 -28 199
-4 169 21 261 94 357 95 125 316 165 466 84 55 -30 111 -97 128 -154 l11 -38
99 0 c97 0 98 0 98 25 0 35 -38 133 -71 180 -79 115 -211 187 -366 201 -37 3
-73 7 -80 9 -6 2 -13 2 -15 1z"/>
<path d="M12610 12838 c-157 -16 -253 -59 -351 -157 -75 -75 -126 -170 -154
-289 -19 -81 -26 -261 -13 -332 5 -25 11 -58 14 -74 18 -105 75 -209 158 -291
111 -109 258 -159 444 -151 107 5 129 9 193 31 187 66 317 235 354 460 13 78
13 253 0 325 -33 184 -139 338 -285 414 -75 39 -123 54 -206 62 -33 3 -63 6
-69 8 -5 1 -44 -1 -85 -6z m236 -212 c135 -65 205 -204 210 -413 4 -183 -42
-322 -134 -404 -79 -69 -143 -90 -266 -85 -82 2 -99 6 -155 36 -133 71 -202
210 -206 415 -2 107 15 207 49 280 49 108 154 189 262 201 27 4 50 7 51 8 11
10 149 -18 189 -38z"/>
<path d="M11263 12193 l2 -618 406 0 405 0 1 87 c1 50 -3 91 -9 94 -5 4 -142
6 -304 6 l-294 -1 0 32 c-1 18 -1 254 -1 525 l1 492 -105 0 -104 0 2 -617z"/>
<path d="M13420 12193 l0 -619 318 1 c204 2 335 6 367 14 121 29 218 108 262
214 18 43 21 68 19 142 -4 108 -7 121 -40 173 -29 47 -75 84 -132 108 -36 15
-38 17 -17 25 13 5 42 28 66 51 110 110 100 326 -20 426 -85 72 -106 75 -485
80 l-338 4 0 -619z m625 423 c57 -23 85 -69 85 -137 0 -70 -25 -117 -76 -143
-35 -19 -60 -21 -236 -24 l-198 -3 0 165 0 165 193 -3 c152 -2 200 -6 232 -20z
m40 -506 c66 -33 96 -84 93 -160 -2 -69 -18 -110 -58 -143 -49 -41 -99 -50
-305 -51 l-190 -1 -3 194 -2 193 207 -4 c198 -3 210 -4 258 -28z"/>
<path d="M14839 12783 c-10 -27 -185 -507 -227 -623 -33 -92 -141 -389 -177
-485 -18 -49 -31 -93 -29 -96 2 -3 49 -6 105 -5 l102 1 52 153 c29 84 56 156
59 160 4 3 113 6 243 6 l236 0 55 -160 56 -161 105 2 c86 1 106 4 105 15 -1
14 -134 383 -169 470 -8 19 -72 195 -144 390 l-129 355 -116 3 -116 3 -11 -28z
m219 -458 l89 -260 -171 1 c-215 2 -200 1 -191 22 4 9 42 121 86 247 95 277
88 259 94 253 2 -2 44 -121 93 -263z"/>
<path d="M15620 12778 c-1 -18 -1 -296 -1 -618 l-1 -585 406 0 c223 -1 407 2
407 5 5 22 3 164 -2 172 -4 6 -115 10 -305 10 l-299 0 0 524 0 524 -102 0
-103 0 0 -32z"/>
<path d="M467 12793 c-8 -13 -94 -282 -126 -393 -88 -307 -186 -740 -227
-1010 -3 -19 -7 -46 -10 -60 -2 -14 -7 -45 -10 -70 -3 -25 -8 -54 -10 -65 -2
-11 -9 -58 -15 -105 -15 -117 -17 -136 -24 -205 -3 -33 -7 -82 -10 -110 -19
-184 -29 -416 -29 -675 l-1 -245 165 1 c91 1 338 4 550 8 212 4 531 9 710 12
445 7 570 11 574 15 2 2 6 96 9 209 3 113 6 206 6 206 1 1 16 0 34 -2 17 -1
84 -5 148 -8 l115 -5 1 27 c0 36 13 216 18 270 14 124 23 203 30 252 2 14 7
48 11 75 3 28 8 57 9 65 2 8 6 35 10 60 4 25 9 54 11 65 3 11 7 36 10 55 3 19
7 42 9 50 2 8 7 31 10 50 3 19 8 42 11 51 3 12 -5 18 -33 22 -21 3 -49 8 -63
11 -14 4 -38 9 -55 12 -16 3 -34 7 -40 9 -5 1 -29 6 -52 10 -42 7 -42 8 -37
44 11 68 93 376 144 541 29 91 53 172 53 180 1 9 -16 21 -48 31 -27 10 -169
59 -315 109 -146 51 -303 105 -350 120 -47 16 -191 65 -320 110 -129 45 -260
90 -290 100 -30 10 -167 57 -304 104 -137 47 -253 86 -257 86 -4 0 -10 -3 -12
-7z"/>
<path d="M10275 11225 c-126 -29 -236 -109 -277 -201 -41 -93 -34 -220 16
-304 54 -91 162 -151 373 -204 180 -46 244 -81 277 -150 25 -52 26 -88 6 -133
-30 -68 -113 -111 -218 -114 -183 -4 -304 87 -321 244 -1 4 -46 7 -100 7
l-100 0 5 -32 c10 -85 16 -107 44 -163 61 -122 161 -193 313 -223 54 -11 249
-7 300 6 159 41 266 141 305 285 17 60 8 165 -18 224 -45 105 -128 154 -388
229 -254 73 -312 113 -312 212 0 97 88 163 219 163 98 0 164 -23 217 -77 23
-25 46 -59 50 -77 4 -17 9 -35 10 -39 1 -5 2 -12 3 -18 0 -6 41 -10 97 -10
l96 0 -5 60 c-13 156 -142 287 -317 320 -68 13 -208 11 -275 -5z"/>
<path d="M16888 11224 c-122 -29 -220 -100 -265 -192 -24 -50 -28 -68 -28
-147 0 -99 18 -151 73 -212 54 -60 174 -116 352 -162 41 -11 91 -25 110 -31
176 -53 231 -226 100 -314 -57 -38 -105 -49 -195 -44 -170 11 -268 94 -284
241 -1 4 -46 7 -100 7 -114 0 -109 7 -84 -106 32 -147 141 -257 298 -301 28
-8 95 -16 150 -18 214 -9 372 56 458 190 58 89 69 235 27 334 -44 101 -132
153 -382 225 -239 70 -282 92 -311 166 -33 84 20 171 124 200 50 15 161 12
208 -5 80 -28 149 -103 156 -170 1 -11 3 -23 4 -27 0 -5 44 -8 96 -8 l95 0 0
39 c0 156 -141 307 -320 341 -73 14 -214 11 -282 -6z"/>
<path d="M11058 11203 c-3 -7 -2 -1185 1 -1219 1 -7 35 -11 101 -10 83 0 100
3 101 16 1 8 1 135 1 283 l0 267 291 -2 292 -3 1 -270 c1 -148 2 -275 3 -281
1 -7 35 -11 101 -10 l100 0 1 31 c0 46 1 1157 0 1183 -1 22 -3 23 -103 20
l-102 -3 -1 -240 0 -240 -291 -1 -291 0 -1 230 c0 127 -1 237 -1 244 -1 9 -28
12 -100 12 -55 0 -101 -3 -103 -7z"/>
<path d="M12580 11183 c-6 -15 -15 -39 -20 -53 -5 -14 -63 -176 -130 -360 -67
-184 -146 -402 -176 -485 -31 -82 -66 -179 -79 -215 -38 -102 -43 -95 67 -96
54 0 102 2 108 6 6 3 33 75 61 158 44 131 54 152 73 153 28 1 415 1 441 0 16
-1 25 -16 43 -68 13 -38 26 -75 29 -83 3 -8 18 -49 32 -90 l27 -75 107 -1 c59
0 107 3 107 7 0 5 -9 34 -21 66 -27 75 -115 314 -139 378 -10 28 -44 120 -75
205 -31 85 -63 171 -70 190 -8 19 -43 114 -78 210 l-64 175 -117 3 -116 3 -10
-28z m205 -413 c42 -124 82 -243 89 -265 l13 -41 -171 2 c-94 1 -176 2 -183 3
-7 1 11 65 48 174 33 94 74 214 91 265 17 51 32 91 33 90 2 -2 37 -104 80
-228z"/>
<path d="M13360 10592 l0 -620 103 2 102 1 1 238 c1 131 3 240 6 242 2 2 88 5
191 5 246 2 320 19 398 92 92 86 130 238 98 390 -28 129 -114 218 -241 251
-44 12 -129 15 -358 16 l-300 2 0 -619z m627 406 c53 -35 76 -85 75 -164 0
-102 -39 -159 -123 -182 -20 -5 -111 -10 -203 -11 -150 0 -166 1 -167 17 -1
20 -1 341 0 360 1 11 37 13 189 10 185 -3 189 -4 229 -30z"/>
<path d="M14390 10592 l0 -619 455 1 455 0 0 93 0 94 -147 -1 c-82 -1 -241 -1
-354 0 l-206 0 0 180 c0 100 4 183 9 186 5 3 145 6 313 6 219 0 305 3 307 12
2 6 3 45 3 86 l-1 75 -316 0 -316 0 1 162 0 161 316 0 c174 1 328 1 342 1 26
1 26 1 26 91 l0 90 -443 0 -444 0 0 -618z"/>
<path d="M15430 10591 l0 -619 100 1 100 1 1 31 c0 16 0 131 1 255 l0 225 184
-2 c309 -3 318 -11 330 -289 3 -73 11 -152 18 -175 l13 -44 117 -1 c104 -1
116 0 116 16 0 10 -7 23 -15 30 -22 18 -33 72 -40 190 -13 219 -18 249 -55
300 -12 17 -38 39 -57 49 l-36 18 34 21 c81 50 129 135 134 239 9 197 -78 320
-255 361 -26 7 -180 11 -367 12 l-323 0 0 -619z m646 418 c37 -18 54 -35 72
-69 37 -74 24 -179 -29 -230 -48 -45 -95 -53 -319 -54 l-165 -1 -2 180 c-2 99
-1 185 1 190 2 7 71 10 199 10 184 -2 197 -3 243 -26z"/>
<path d="M10363 9625 c-269 -60 -424 -289 -425 -629 -1 -321 128 -541 368
-627 69 -25 264 -36 328 -18 21 6 48 12 60 15 88 16 236 135 289 232 30 55 55
143 53 187 l-1 30 -99 0 c-98 0 -99 0 -103 -25 -27 -184 -185 -290 -383 -259
-125 20 -223 109 -268 245 -26 77 -33 122 -33 221 0 308 142 471 401 457 150
-7 264 -99 279 -225 1 -4 46 -7 101 -7 96 0 100 1 100 21 0 33 -27 126 -40
143 -7 8 -9 14 -5 14 4 0 -5 17 -20 38 -68 93 -177 163 -289 187 -82 17 -237
17 -313 0z"/>
<path d="M11600 9633 c-221 -38 -389 -196 -445 -418 -22 -85 -25 -114 -25
-230 0 -91 2 -109 15 -180 37 -206 169 -364 358 -433 63 -22 88 -26 197 -26
175 -1 222 9 334 72 128 73 234 229 260 382 3 19 8 46 11 60 7 32 7 227 0 260
-3 14 -8 41 -12 60 -28 138 -74 222 -172 317 -63 60 -156 109 -244 127 -60 13
-226 18 -277 9z m289 -207 c139 -71 214 -224 213 -434 -1 -117 -16 -190 -55
-270 -74 -153 -223 -227 -397 -197 -198 34 -310 197 -312 454 -1 243 80 394
248 462 40 16 67 19 149 16 85 -3 108 -8 154 -31z"/>
<path d="M12464 8993 l1 -618 90 -2 c69 -1 91 2 95 12 3 8 5 236 4 507 l0 493
22 -70 c12 -38 30 -97 39 -130 10 -33 68 -229 129 -435 l111 -375 101 -2 100
-2 93 307 c51 169 102 336 112 372 11 36 22 72 24 81 9 41 68 225 73 231 4 4
7 -217 7 -490 l0 -497 98 -3 97 -2 0 620 0 620 -149 0 -149 0 -32 -102 c-17
-57 -35 -114 -41 -128 -5 -14 -11 -34 -14 -45 -7 -34 -68 -233 -152 -500 -14
-44 -32 -105 -40 -135 -8 -30 -18 -58 -21 -62 -4 -4 -31 75 -61 175 -30 100
-65 216 -78 257 -12 41 -54 179 -91 305 l-69 230 -150 3 -151 3 2 -618z"/>
<path d="M13868 9603 c-4 -7 -3 -1188 1 -1221 1 -9 26 -12 90 -11 74 1 90 4
93 17 2 10 3 234 3 499 0 265 2 479 6 475 6 -6 55 -163 64 -205 2 -9 22 -79
45 -155 62 -204 75 -250 133 -447 l53 -180 102 -1 c56 -1 102 1 102 3 0 2 16
56 36 121 19 64 85 284 146 487 61 204 113 373 117 377 3 4 6 -217 6 -491 l0
-499 97 0 98 0 0 619 0 619 -148 0 -149 0 -92 -302 c-51 -167 -104 -337 -116
-378 -13 -41 -39 -126 -58 -189 -19 -63 -36 -110 -39 -105 -3 5 -16 43 -27 84
-12 41 -26 86 -31 100 -13 37 -71 229 -75 248 -2 9 -13 49 -25 87 -12 39 -34
113 -50 165 -16 52 -41 138 -57 190 l-28 95 -147 3 c-81 1 -148 -1 -150 -5z"/>
<path d="M15260 9423 c-1 -473 0 -682 4 -695 3 -7 7 -30 10 -50 12 -82 67
-182 128 -233 36 -31 136 -80 183 -91 65 -14 250 -14 313 1 165 39 276 147
323 315 9 33 13 167 15 493 l1 447 -103 0 -104 0 -2 -422 c0 -233 -2 -427 -2
-433 -11 -85 -62 -162 -129 -198 -36 -19 -58 -22 -147 -22 -120 0 -163 15
-217 73 -63 70 -66 100 -69 567 -1 231 -2 423 -3 428 0 4 -46 7 -101 7 l-100
0 0 -187z"/>
<path d="M16433 8991 l0 -619 98 0 99 -1 2 460 3 460 142 -228 c78 -125 207
-331 286 -458 l145 -230 108 0 109 0 0 618 1 617 -98 0 -98 0 0 -52 c-1 -29
-1 -236 -2 -460 0 -439 2 -422 -45 -343 -15 26 -276 445 -318 510 -47 75 -108
172 -123 198 -7 12 -30 49 -51 82 l-38 60 -110 3 -110 3 0 -620z"/>
<path d="M17630 8991 l0 -618 100 -1 c96 -2 100 -1 104 21 3 12 4 291 4 620
l-1 597 -104 0 -103 0 0 -619z"/>
<path d="M17930 9520 c0 -86 1 -90 23 -91 12 0 97 0 190 0 l167 0 0 -529 0
-528 103 1 102 2 0 525 1 525 149 2 c83 1 168 2 190 2 l41 1 -2 83 c-1 45 -2
85 -3 90 0 4 -217 7 -481 7 l-480 0 0 -90z"/>
<path d="M19082 9328 c186 -308 184 -304 246 -409 l42 -72 0 -238 0 -238 102
2 103 2 0 245 1 245 101 175 c55 96 111 195 124 219 13 24 29 51 34 60 6 9 30
52 55 96 25 44 49 88 55 97 5 9 20 35 32 57 l23 41 -119 0 -119 0 -24 -47
c-23 -46 -212 -411 -248 -481 -19 -35 -21 -34 -57 33 -12 22 -32 60 -45 85
-13 25 -68 127 -122 228 l-98 182 -128 0 -129 0 171 -282z"/>
<path d="M2509 9566 c-2 -2 -96 -7 -209 -10 -113 -4 -268 -9 -345 -11 -481
-16 -1356 -33 -1768 -34 l-177 -1 4 -27 c3 -16 7 -73 10 -128 4 -55 8 -116 11
-135 3 -19 7 -62 10 -95 5 -62 22 -208 30 -260 12 -82 18 -120 37 -240 20
-128 23 -145 33 -195 5 -26 11 -59 20 -107 3 -16 10 -48 15 -73 6 -25 12 -54
14 -65 3 -11 14 -63 26 -115 12 -52 23 -102 25 -110 29 -141 143 -526 227
-770 64 -187 204 -550 217 -563 5 -5 208 92 452 215 440 221 814 405 1084 534
77 36 195 93 263 125 68 33 125 59 126 59 2 0 55 24 118 54 237 113 634 294
913 418 99 44 205 91 235 105 30 14 159 70 285 125 127 55 233 103 237 106 6
6 -63 217 -74 228 -4 3 -338 -75 -349 -82 -8 -4 -12 7 -11 26 3 51 13 151 17
170 2 14 7 45 10 70 4 25 8 59 11 75 3 17 7 44 10 60 2 17 7 41 9 55 3 14 7
34 9 45 3 11 9 40 15 65 6 25 11 49 11 53 0 7 -72 3 -140 -9 -14 -2 -63 -8
-110 -14 -119 -15 -160 -20 -200 -25 -19 -3 -56 -7 -82 -10 -96 -10 -145 -16
-218 -25 -41 -5 -100 -12 -130 -15 -30 -3 -71 -8 -90 -10 -19 -3 -64 -7 -100
-10 -36 -3 -76 -8 -90 -10 -26 -4 -85 -10 -205 -21 -38 -3 -77 -8 -86 -9 -13
-3 -19 12 -29 73 -15 90 -15 90 -24 167 -4 33 -9 71 -11 85 -5 32 -12 105 -20
195 -7 71 -8 78 -16 71z"/>
<path d="M14163 8030 c-280 -51 -445 -284 -447 -630 -1 -306 110 -516 324
-614 76 -34 98 -38 233 -41 121 -3 179 8 272 50 45 21 116 75 157 120 67 73
121 219 109 293 0 4 -45 8 -98 7 l-97 -1 -11 -49 c-22 -98 -73 -163 -159 -205
-147 -73 -335 -29 -426 97 -26 36 -77 136 -78 153 0 3 -3 28 -8 55 -31 200 12
393 109 493 70 72 159 103 281 96 136 -8 232 -72 271 -182 l19 -52 99 0 99 0
-6 38 c-25 171 -138 300 -306 353 -75 24 -255 33 -337 19z"/>
<path d="M9938 7997 c-4 -10 -3 -137 1 -159 0 -5 154 -8 342 -8 l340 0 -103
-127 c-57 -71 -132 -162 -165 -203 -33 -41 -149 -183 -257 -315 l-195 -240 -1
-87 0 -87 480 0 481 0 -3 91 -3 92 -342 1 c-188 0 -344 2 -347 5 -4 5 95 132
236 301 31 37 303 370 402 492 17 22 38 47 46 57 12 13 15 39 13 101 -1 46 -2
87 -2 92 -1 4 -208 7 -460 7 -349 -1 -460 -4 -463 -13z"/>
<path d="M10979 7713 c-1 -620 0 -635 56 -750 78 -158 211 -224 445 -219 209
5 332 65 410 201 61 109 63 119 66 590 2 237 1 440 -2 453 -4 21 -9 22 -104
22 l-100 0 0 -422 c0 -480 -3 -504 -71 -582 -46 -52 -117 -78 -215 -77 -134 1
-213 50 -254 158 -22 57 -23 68 -24 488 l-1 430 -103 3 -102 3 -1 -298z"/>
<path d="M12179 8003 c-1 -10 0 -1202 0 -1220 1 -10 28 -13 101 -13 l100 0 0
255 c0 236 1 255 18 256 68 3 334 -2 362 -7 61 -11 90 -33 111 -84 13 -32 17
-70 23 -215 3 -67 11 -139 18 -160 l13 -40 118 -2 c106 -1 117 0 117 17 0 9
-7 24 -16 31 -25 21 -34 54 -39 148 -8 146 -16 235 -22 261 -14 61 -52 110
-100 129 l-32 13 47 32 c103 69 147 199 117 346 -27 128 -99 205 -229 244 -48
15 -705 23 -707 9z m616 -183 c84 -24 124 -85 119 -187 -3 -76 -35 -127 -98
-154 -46 -20 -69 -22 -243 -24 l-193 -1 0 187 c0 116 4 189 10 191 29 9 364
-1 405 -12z"/>
<path d="M13330 7958 c0 -67 0 -971 0 -1095 l0 -93 99 0 c70 0 100 4 103 13 2
6 4 284 4 617 l-1 605 -103 3 -102 3 0 -53z"/>
<path d="M14980 7389 l0 -620 105 2 c57 1 104 4 103 8 0 3 0 131 1 283 l1 277
290 0 290 0 0 -285 0 -284 104 0 105 0 0 620 1 620 -105 0 -105 0 0 -244 0
-244 -290 1 -290 0 0 244 0 243 -105 -1 -105 -1 0 -619z"/>
<path d="M1685 6705 c-110 -52 -300 -142 -355 -167 -66 -31 -133 -62 -368
-174 l-133 -63 119 -233 c66 -128 137 -262 158 -298 21 -36 39 -67 39 -70 0
-3 8 -16 16 -30 9 -14 56 -90 104 -170 309 -507 624 -924 1040 -1379 169 -185
546 -548 686 -661 l37 -30 117 138 c64 75 147 170 183 211 37 40 77 85 89 100
11 14 73 89 137 166 63 77 116 145 116 151 0 6 -30 38 -67 72 -126 112 -293
281 -293 296 0 8 4 16 9 18 21 8 63 96 80 166 26 112 25 248 -5 487 -14 118
-67 342 -109 466 l-25 74 65 95 c36 52 88 128 115 168 28 39 46 72 39 72 -6 0
-88 -25 -183 -55 -94 -30 -178 -55 -186 -55 -7 0 -39 20 -69 43 -164 128 -403
266 -586 339 -139 56 -216 72 -345 72 -116 0 -129 -2 -184 -27 -33 -15 -60
-26 -62 -25 -2 3 -122 256 -139 295 -9 21 -12 21 -40 8z"/>
<path d="M11020 6180 c-69 -42 -170 -101 -225 -130 -55 -29 -104 -56 -109 -61
-4 -4 17 -58 48 -120 44 -89 53 -116 43 -124 -6 -6 -47 -27 -89 -46 -43 -19
-77 -37 -78 -41 0 -4 11 -31 24 -60 13 -29 33 -73 44 -98 106 -238 297 -664
313 -698 50 -109 348 -771 401 -892 33 -74 72 -162 88 -195 15 -33 49 -107 75
-165 62 -140 65 -148 125 -280 29 -63 69 -153 90 -200 43 -98 81 -182 117
-259 13 -29 63 -139 110 -245 170 -382 200 -446 211 -446 6 0 27 9 49 19 21
11 124 62 228 112 105 51 215 107 245 124 30 18 84 48 120 67 272 147 648 388
942 605 l128 95 -28 36 c-15 20 -34 46 -44 57 -9 11 -125 162 -257 335 -133
173 -247 322 -254 330 -7 8 -70 92 -141 185 -71 94 -139 182 -150 196 -31 38
-202 260 -319 413 -187 245 -270 354 -280 366 -11 14 -96 125 -325 423 -51 67
-105 137 -120 156 -15 19 -58 75 -97 126 -38 50 -128 167 -200 260 -71 93
-135 176 -142 184 -10 14 -15 13 -44 -8 -58 -43 -204 -147 -216 -154 -8 -5
-37 29 -85 101 l-73 109 -125 -77z"/>
<path d="M13845 5443 c-108 -127 -442 -466 -575 -584 -53 -46 -117 -103 -144
-127 l-48 -42 38 -48 c22 -26 49 -58 61 -72 11 -14 71 -86 133 -160 61 -74
129 -155 150 -180 21 -25 143 -171 271 -326 129 -155 247 -296 263 -315 15
-19 64 -78 108 -131 64 -78 84 -96 97 -89 21 12 275 235 370 326 317 303 576
583 805 870 48 61 95 119 104 130 10 11 29 36 43 55 l26 35 -81 62 c-45 33
-180 136 -301 227 -121 90 -224 169 -230 173 -49 43 -301 226 -310 227 -7 0
-55 -39 -106 -88 -52 -49 -112 -107 -134 -128 l-41 -38 -49 41 c-28 22 -61 50
-75 62 -145 125 -270 227 -277 226 -4 0 -48 -48 -98 -106z"/>
<path d="M7987 5507 c-3 -12 -11 -60 -17 -107 -12 -102 -17 -137 -25 -193 -10
-70 -14 -97 -30 -227 -21 -161 -25 -191 -30 -215 -2 -11 -7 -47 -11 -80 -15
-138 -18 -150 -39 -148 -32 3 -98 13 -125 18 -14 3 -36 7 -50 10 -14 3 -38 8
-55 11 -58 13 -71 12 -72 -5 -1 -9 -13 -69 -27 -133 -14 -64 -28 -129 -30
-144 -3 -15 -10 -50 -16 -78 -6 -28 -12 -60 -14 -71 -2 -11 -12 -56 -21 -100
-62 -299 -143 -693 -161 -785 -3 -13 -6 -26 -8 -27 -3 -4 -183 37 -321 72 -54
13 -102 22 -107 17 -4 -4 -14 -34 -21 -67 -8 -33 -40 -152 -72 -265 -31 -113
-58 -212 -60 -220 -2 -8 -17 -62 -33 -120 -32 -114 -112 -406 -117 -430 -2 -8
-35 -130 -74 -270 -38 -140 -71 -264 -73 -274 -2 -16 7 -22 47 -33 125 -34
449 -109 553 -128 14 -2 48 -9 76 -14 28 -6 65 -12 81 -15 17 -3 42 -7 58 -10
42 -9 76 -15 126 -22 25 -3 57 -8 71 -10 24 -4 90 -13 135 -19 11 -1 47 -6 80
-9 33 -4 74 -9 90 -11 118 -16 306 -31 495 -40 74 -4 152 -8 172 -9 20 -2 40
0 45 3 5 3 9 152 9 331 1 310 13 1484 19 1885 5 307 16 868 20 1030 2 83 7
283 11 445 3 162 7 325 8 363 1 41 -2 67 -9 68 -5 0 -17 2 -25 3 -8 2 -64 6
-125 10 -60 4 -123 9 -140 11 -104 12 -140 17 -160 21 -17 3 -24 -2 -28 -19z"/>
<path d="M4760 5068 c-52 -67 -133 -169 -179 -227 -45 -58 -95 -121 -110 -140
-14 -18 -60 -77 -102 -130 -42 -53 -187 -238 -323 -411 -136 -173 -255 -324
-264 -335 -10 -11 -91 -114 -181 -230 -91 -115 -194 -247 -230 -293 -37 -46
-67 -87 -69 -91 -5 -14 390 -301 618 -451 506 -331 1123 -643 1683 -851 89
-33 171 -64 182 -69 49 -21 255 -84 258 -79 3 4 76 233 81 254 2 6 6 17 9 25
3 8 42 132 87 275 45 143 98 314 119 380 106 331 123 386 120 388 -2 2 -69 25
-149 51 -162 54 -414 152 -565 219 -191 85 -221 99 -357 168 l-138 69 -18 -38
c-51 -105 -187 -352 -193 -352 -4 0 -61 30 -126 67 -65 36 -135 76 -155 87
-21 12 -38 24 -38 28 0 4 26 51 58 105 33 54 99 166 148 248 49 83 94 159 101
170 7 11 15 26 19 34 4 8 32 55 62 105 30 50 127 213 214 361 88 149 168 284
179 301 l19 31 -88 53 c-114 70 -343 225 -462 315 -52 39 -99 74 -105 77 -5 3
-53 -48 -105 -114z"/>
<path d="M9519 4316 c-12 -11 -376 -52 -498 -55 l-43 -1 7 -147 c13 -251 15
-227 -25 -230 -19 -1 -79 -3 -132 -4 l-98 -2 0 -36 c-1 -68 2 -456 5 -671 2
-118 6 -469 10 -780 9 -693 13 -988 14 -1018 l1 -23 143 6 c196 7 432 21 517
30 25 3 70 7 100 10 63 6 293 34 330 40 41 7 212 33 255 40 22 3 47 7 55 10 8
2 31 6 50 9 88 13 405 82 555 121 264 68 606 172 780 236 155 58 300 113 304
116 4 3 -7 33 -45 123 -13 30 -80 199 -150 375 -69 176 -131 331 -137 345 -6
14 -11 27 -11 30 -4 17 -250 627 -257 634 -4 4 -56 -8 -116 -27 -179 -59 -449
-137 -472 -137 -9 0 -32 62 -70 195 l-20 70 -208 1 c-299 2 -395 8 -404 25 -5
8 -25 100 -46 204 -43 214 -28 195 -138 176 -33 -6 -76 -14 -95 -17 -19 -3
-43 -7 -52 -10 -12 -4 -19 2 -22 18 -7 32 -56 328 -56 339 0 9 -23 13 -31 5z"/>
</g>
</svg>
